<?xml version="1.0" encoding="utf-8"?><!-- Uploaded to: SVG Repo, www.svgrepo.com, Generator: SVG Repo Mixer Tools -->
<svg width="800px" height="800px" viewBox="-25 0 98 98" fill="none" xmlns="http://www.w3.org/2000/svg">
<path d="M18.3411 74.1924C18.3411 72.0809 18.3411 69.7582 18.3411 67.6467C18.5525 49.0651 18.9754 30.2725 19.1869 11.6909C19.1869 9.57939 19.1869 7.679 19.3984 5.56747C19.6098 2.82247 20.2442 -0.555987 23.8389 0.0774737C25.3191 0.288627 27.0108 3.45593 27.2222 5.35632C28.0681 20.9817 28.7024 36.3959 29.3368 52.0213C29.5483 55.6109 29.3368 59.2005 31.2399 63.0013C33.7774 58.7782 35.892 54.344 38.6409 50.332C39.9096 48.4317 43.0815 46.3201 44.9846 46.7424C48.7908 47.5871 48.3679 51.8101 47.0992 54.344C41.6013 67.0132 36.1034 79.8936 29.5483 92.1405C25.3191 99.9532 18.9754 99.9532 14.7463 92.1405C9.03698 81.7939 4.80785 70.6028 0.155803 59.834C-0.478567 58.567 1.00163 56.4555 1.42454 54.7663C3.11619 55.3997 5.65367 55.3997 6.4995 56.6667C8.61407 59.2005 9.88281 62.579 11.5745 65.5351C13.2661 68.7024 14.9578 71.8697 16.6494 74.8259C17.0723 74.4036 17.7067 74.1924 18.3411 74.1924Z" fill="#0D1927"/>
</svg>